<svg xmlns="http://www.w3.org/2000/svg" version="1.0" viewBox="0 0 77 69"><g fill="#FFF" stroke-width="0"><path d="M0 34.5C0 69 0 69 38.5 69S77 69 77 34.5 77 0 38.5 0 0 0 0 34.5zM35 2.2c0 .9.3.9.8.3C36.8 1 44 .9 44 2.3c0 .7.4.6 1-.3.5-.8 1-1.1 1-.5 0 .5 1.2 1.1 2.6 1.2 1.5 0 3 .7 3.5 1.5.5.7.9.9.9.5s.9-.3 2 .3 1.8 1.5 1.5 2c-.3.5-.1 1.1.5 1.5.5.3 1 .1 1-.6s.8-.5 2 .6c1.5 1.3 2 3.1 2 6.6 0 2.6.5 5.1 1.2 5.5.6.4.8.3.5-.3-.7-1.1 2.3-2.8 6.2-3.7 2.9-.6 6.1 1.3 6.1 3.7 0 1-.4 1.5-1 1.2-.5-.3-.7 0-.4.9.7 1.9-6.4 9.3-9.9 10.1-2.6.7-2.6.7-2.9 13.3-.3 12.5-.3 12.5-3.3 14.3-7.2 4.4-8.8 5-12.8 5.2-2.3 0-4.5.6-4.9 1.1-.6.8-1 .8-1.5.1-.5-.6-2.9-1.1-5.4-1.1-4.9-.1-13.3-4-12.2-5.7.3-.6.1-.7-.5-.3-1.5.9-9.4-7.3-8.8-9.1.3-.8.2-1.2-.3-.9-1.2.8-4.4-6.2-3.7-8 .3-.8.2-1.4-.3-1.4-.4 0-.9-2.3-1-5-.1-3.5.3-5 1.1-5 .9 0 .8-.4-.2-1.1-1.1-.8-1.2-1.2-.2-1.6.6-.2 1-.9.7-1.3-.9-1.4 2.6-9.1 3.8-8.3.5.3.7.2.4-.4-.8-1.3 2.2-5.5 3.4-4.7.5.3.8 0 .7-.8-.2-.7.3-1.2 1-1 .6.1 1.1-.3 1-1-.4-1.5 8.4-7 11.6-7.2 1.4 0 2.6-.4 2.6-.9 0-.4.5-.7 1-.7.6 0 1 .6 1 1.2z"/><path d="M30.5 15.4C23.6 18.6 19 25.1 19 31.5c0 1.3-.6 2.6-1.2 2.8-1 .4-1 .6 0 .6.6.1 1.2 1 1.2 2.1 0 4.7 9.3 18.3 11.3 16.4.2-.2 1.7 0 3.3.6 3.3 1.3 11.5 2 10.9.9-.3-.4.7-1 2.3-1.4C56.6 51.1 60 41 51 41c-3.4 0-5.6-.6-6.8-1.7-1-1-2.5-1.9-3.3-2.1-2.2-.5-6.1-3.3-5.5-3.9.3-.3-.1-1.1-.9-1.7-.7-.6-1.5-1.8-1.7-2.6-.2-.8-.9-2.1-1.5-2.8-3-3.2-2.1-10.5 1-8.5.6.4.7.1.2-.7-1.3-2.1 8.3-.2 13.2 2.6 4.9 2.8 9.8 8.8 8.7 10.5-.4.8-.3.9.4.5 3.5-2.2-.7-16.1-4.5-14.9-.6.2-1.7-.2-2.4-.9-2.5-2.4-11.8-2-17.4.6z"/></g><path fill="#E6D4AA" d="M31.6 16.8c-.3.5.7.9 2.2.9 8.9 0 22.4 9.7 21.4 15.5-.2 1 .1 1.8.6 1.8.6 0 1.2-2.6 1.5-5.8.8-8.7.6-11.1-.7-10.6-.7.3-1 2.5-.8 6.2.4 5.7.4 5.7-2.7 1.5-4.8-6.6-19.3-13-21.5-9.5zM47 40.2c0 .4 2.1.8 4.6.8 4.6 0 4.6 0 4.2 4-.2 2.2-.1 4 .2 4 .3 0 .7 1.9.9 4.2.1 2.3.4 4.5.7 4.9.2.4-.4 1.3-1.3 1.9-1.5.9-1.4 1 .7.4 3.1-.8 3.9-1.5 2.3-2.1-.8-.3-1.3-2.4-1.4-5.1-.2-12.1-.9-13.7-6.1-13.8-2.7 0-4.8.3-4.8.8zM8.4 43.3C9.2 46.8 13.7 54 15 54c.6 0 .9.4.8.9-.3 1 6.4 6.6 10.2 8.6 3.7 1.8 9.3 2.6 11 1.5 1.1-.7.6-1-2.2-1.1-3.6-.1-4.7-.3-6.5-.9-.5-.1-1.1-.2-1.5-.1-.5 0-.8-.3-.8-.8s-.9-1.3-2-1.6c-2.1-.7-11.2-9.7-11.9-11.8-.2-.7-.8-1.4-1.2-1.7-.5-.3-1-1.6-1.2-2.8-.2-1.2-.7-2.5-1.1-2.9-.5-.5-.6.5-.2 2z"/><path fill="#C55" d="M37.2 3.8c-3.2 1-9.2 6-9.2 7.7 0 .8-.5 1.5-1.2 1.5-.6 0-.9.2-.7.5.6.6 6.9-1.7 6.9-2.5 0-.3 2.1-.4 4.6-.1 4.6.3 4.6.3 2.8-1.8-2.2-2.5-2.8-2.7-2-.6.3.9 0 1.5-.9 1.5-1.6 0-2-2.5-.6-3.5 1.5-.8 6.1 1.6 6.1 3.3 0 .9.7 1.3 2 .9 1.1-.3 1.8-.2 1.5.3-.6.9 1.9 2 4.6 2 1.1 0 1.8.4 1.5.9-.3.5.1 1.1.9 1.5 1.2.4 1.5-.4 1.5-3.8 0-4.4 0-4.4-4.6-3.8-3.3.3-4.5.2-4-.6.4-.6 1.3-.9 2-.6.8.3 1.7.1 2-.4.5-.9-.8-1.3-8.9-2.7-1.1-.2-3 0-4.3.3zM64 22c-1.1 1.1-2 2.4-2 3 0 1.7-.3 2.5-1.7 3.8-.7.8-1.2 3.2-1.2 5.5.2 4.2.2 4.2.8.2.5-3.5 1-4 4-4.6 3.5-.7 9.1-6 9.1-8.6 0-1.4-.3-1.4-2 .2-1.1 1-2 2.5-2 3.2 0 .8-.6 1.3-1.2 1-.7-.2-1.2-1.6-1.2-3 .1-3.2 0-3.3-2.6-.7zm-31.9.8c-.3 4.8 9 13.8 12.1 11.8 2.3-1.5 3.8-1.3 3.8.6 0 .4-.7.8-1.5.8-2.7 0-1.5 1.7 1.6 2.4 5.8 1.1 7 .8 6.5-1.7-1-5.3-1.6-5.8-6.2-5.4-2.4.2-4.1 0-3.8-.5.5-.7-1.3-1.2-4.3-1.1-.7.1-1.1-.3-.8-.7.5-.8-4.6-4.6-5.5-4.1-.2.1-.7-.6-1.1-1.6-.4-1-.8-1.2-.8-.5zm20.5 31.1C49.2 57.7 35 58.4 29.4 55c-3.5-2-3.5-2-.3 2 4.3 5.3 7.3 7.2 8.8 5.7.9-.9 1.4-.9 2 .2.5.7 1.7 1.1 2.7.7 1.1-.3 3-.7 4.4-1 6.2-1.1 7.6-2.2 7.8-6.5.3-4.7.2-4.8-2.2-2.2z"/><path fill="#800055" d="M28.8 5.5c-5.1 1.9-8.9 4.5-8.1 5.8.3.5.2.7-.4.4-3.1-1.9-6.6 6.7-4.9 12.1 1 3 1.7 2.8 4.4-1.6 3.8-6.2 7.1-10.5 10.9-14.5 3.9-4 3.7-4.3-1.9-2.2zM37.6 26c1.1 1.2 2.7 2.2 3.5 2.3.8.2 1.9.6 2.5.9 1.9 1.2 9.4 2.1 9.4 1.1 0-2-2.6-3.3-6.7-3.3-2.4 0-5.8-.7-7.6-1.6-3.2-1.6-3.2-1.6-1.1.6zM15.4 37.9c.4.5.1 1.1-.6 1.3-.6.2-1.2 2.5-1.4 5-.3 5.8 4.8 12.3 12.8 16.3 7.3 3.7 9.1 3.2 4.6-1.1-2.1-1.9-3.8-3.9-3.8-4.5 0-.5-.5-.8-1.2-.7-.7.2-1.2-.2-1.3-.7 0-.6-1.2-2.6-2.6-4.5-3.8-5-5.4-8.2-5-10.3.1-.9-.3-1.7-.9-1.7-.6 0-.9.4-.6.9z"/><path fill="#305" d="M11.4 23.7c-1.7 4.1-2.1 15.4-.6 19.3.9 2.5.9 2.5 1.6-.7.4-1.8.5-3.7.1-4.3-.4-.6-.1-.9.6-.8 1.6.4 3.8-7.1 2.8-9.7-.4-1.1-.8-1.6-.8-1-.1.5-.6.3-1.1-.5-.5-.8-.7-2.5-.3-3.7.8-3.6-.6-2.7-2.3 1.4z"/></svg>